<?xml version="1.0" encoding="UTF-8" standalone="no"?>
<svg width="94px" height="39px" viewBox="0 0 94 39" version="1.1" xmlns="http://www.w3.org/2000/svg" xmlns:xlink="http://www.w3.org/1999/xlink">
    <!-- Generator: Sketch 3.7 (28169) - http://www.bohemiancoding.com/sketch -->
    <title>Group</title>
    <desc>Created with Sketch.</desc>
    <defs></defs>
    <g id="Page-1" stroke="none" stroke-width="1" fill="none" fill-rule="evenodd">
        <g id="Group" transform="translate(1.000000, 1.000000)" stroke="#000000" stroke-width="2">
            <g id="Icon:-rover" transform="translate(55.000000, 0.000000)">
                <path d="M24,14.5 C24,13.672 23.328,13 22.5,13 C21.67125,13 21,13.672 21,14.5 C21,15.328 21.67125,16 22.5,16 C23.328,16 24,15.328 24,14.5 L24,14.5 Z" id="Stroke-494" stroke-linecap="round" stroke-linejoin="round"></path>
                <path d="M16,14.5 C16,13.672 15.328,13 14.5,13 C13.67125,13 13,13.672 13,14.5 C13,15.328 13.67125,16 14.5,16 C15.328,16 16,15.328 16,14.5 L16,14.5 Z" id="Stroke-495" stroke-linecap="round" stroke-linejoin="round"></path>
                <path d="M13,13 L10,10" id="Stroke-496" stroke-linecap="round" stroke-linejoin="round"></path>
                <path d="M27,10 L24,13" id="Stroke-497" stroke-linecap="round" stroke-linejoin="round"></path>
                <polyline id="Stroke-498" stroke-linecap="round" stroke-linejoin="round" points="31.5 1 27 1 27 10 36 10 36 5.5"></polyline>
                <path d="M23,28.5 C23,30.9855 20.98475,33 18.5,33 C16.0145,33 14,30.9855 14,28.5 C14,26.0145 16.0145,24 18.5,24 C20.98475,24 23,26.0145 23,28.5 L23,28.5 Z" id="Stroke-499"></path>
                <path d="M35,28.5 C35,30.9855 32.98475,33 30.5,33 C28.0145,33 26,30.9855 26,28.5 C26,26.0145 28.0145,24 30.5,24 C32.98475,24 35,26.0145 35,28.5 L35,28.5 Z" id="Stroke-500"></path>
                <path d="M12,28.5 C12,30.9855 9.98475,33 7.5,33 C5.0145,33 3,30.9855 3,28.5 C3,26.0145 5.0145,24 7.5,24 C9.98475,24 12,26.0145 12,28.5 L12,28.5 Z" id="Stroke-501"></path>
                <path d="M14,28 L11,28" id="Stroke-502"></path>
                <path d="M26,28 L23,28" id="Stroke-503"></path>
                <path d="M2.84615385,29 L1.42307692,29 C0.636826923,29 0,28.328 0,27.5 L0,24.5 C0,22.0145 1.91119231,20 4.26923077,20 L32.7307692,20 C35.0880962,20 37,22.0145 37,24.5 L37,27.5 C37,28.328 36.3624615,29 35.5769231,29 L34.1538462,29" id="Stroke-504"></path>
                <path d="M9,28.5 C9,29.328 8.328,30 7.5,30 C6.67125,30 6,29.328 6,28.5 C6,27.672 6.67125,27 7.5,27 C8.328,27 9,27.672 9,28.5 L9,28.5 Z" id="Stroke-505"></path>
                <path d="M20,28.5 C20,29.328 19.328,30 18.5,30 C17.67125,30 17,29.328 17,28.5 C17,27.672 17.67125,27 18.5,27 C19.328,27 20,27.672 20,28.5 L20,28.5 Z" id="Stroke-506"></path>
                <path d="M31,28.5 C31,29.328 30.328,30 29.5,30 C28.67125,30 28,29.328 28,28.5 C28,27.672 28.67125,27 29.5,27 C30.328,27 31,27.672 31,28.5 L31,28.5 Z" id="Stroke-507"></path>
                <path d="M5,5 L1,1" id="Stroke-508" stroke-linecap="round" stroke-linejoin="round"></path>
                <path d="M14,20 L14,16" id="Stroke-509" stroke-linecap="round" stroke-linejoin="round"></path>
                <path d="M23,20 L23,16" id="Stroke-510" stroke-linecap="round" stroke-linejoin="round"></path>
                <path d="M9.90281657,0 C12.6649951,2.76217848 12.7159238,7.19085952 9.953038,9.953038 C7.19085952,12.7159238 2.76217848,12.6649951 0,9.90281657 L9.90281657,0 L9.90281657,0 Z" id="Stroke-511" stroke-linecap="round" stroke-linejoin="round"></path>
            </g>
            <g id="Icon:-earth" stroke-linecap="round" stroke-linejoin="round">
                <path d="M37,18.5 C37,8.28301923 28.7169808,0 18.5,0 C8.28301923,0 0,8.28301923 0,18.5 C0,28.7169808 8.28301923,37 18.5,37 C28.7169808,37 37,28.7169808 37,18.5 L37,18.5 Z" id="Stroke-23"></path>
                <polyline id="Stroke-25" points="5.4549 5.52978404 3 14.3401187 7.2 18.6462452 14.9 17.9285574 12.8 21.5169962 12.8 23.6700594 15.6 25.8231226 17 33 20.5 28.6938736 21.9 23.6700594 24 20.0816207 21.2 17.9285574 17 17.2108697 15.6 12.9047433 18.4 10.0339923 19.8 11.4693678 21.2 4.29249038 19.1063 0"></polyline>
                <polyline id="Stroke-27" points="30.0721084 4 28.9081295 7.49214431 26 11.8564155 27.4540648 14.7659296 33.2703239 16.2206866 34.7243886 20.5849578 37 24"></polyline>
            </g>
        </g>
    </g>
</svg>