<?xml version="1.0" encoding="UTF-8"?>
<svg width="26px" height="35px" viewBox="0 0 26 35" version="1.1" xmlns="http://www.w3.org/2000/svg" xmlns:xlink="http://www.w3.org/1999/xlink">
    <!-- Generator: Sketch 40 (33762) - http://www.bohemiancoding.com/sketch -->
    <title>Send doc</title>
    <desc>Created with Sketch.</desc>
    <defs></defs>
    <g id="BrainSpark" stroke="none" stroke-width="1" fill="none" fill-rule="evenodd">
        <g id="BS-Send-the-Project" transform="translate(-400.000000, -2175.000000)" fill="#000000">
            <g id="Send-Form" transform="translate(380.000000, 1894.000000)">
                <g id="File" transform="translate(16.000000, 281.000000)">
                    <path d="M25.3596945,23 L7.64030555,23 C7.28771063,23 7,23.224 7,23.5 C7,23.776 7.28771063,24 7.64030555,24 L25.3596945,24 C25.7139969,24 26,23.776 26,23.5 C26,23.224 25.7139969,23 25.3596945,23 L25.3596945,23 Z M22.5103336,11 L29.3117168,11 C29.3170871,10.9991151 29.3233523,10.9991151 29.3287225,11 C29.6992677,11 30,10.7026609 30,10.3362967 C30,10.1088678 29.8836452,9.90710197 29.706428,9.78763539 L20.149227,0.196680899 C19.9585842,0.0055343615 19.6694874,-0.0511016495 19.416192,0.0480113698 C19.1646867,0.151549077 19,0.393137062 19,0.663043052 L19,7.52927445 C19,9.44339463 20.5743694,11 22.5103336,11 L22.5103336,11 Z M21,2 L28,9 L23.0602746,9 C21.9238061,9 21,8.08885163 21,6.96982397 L21,2 L21,2 Z M25.3596945,28 L7.64030555,28 C7.28771063,28 7,28.224 7,28.5 C7,28.7766667 7.28771063,29 7.64030555,29 L25.3596945,29 C25.7139969,29 26,28.7766667 26,28.5 C26,28.224 25.7139969,28 25.3596945,28 L25.3596945,28 Z M7.68002539,7 L16.3208813,7 C16.6953486,7 17,6.776 17,6.5 C17,6.224 16.6953486,6 16.3208813,6 L7.68002539,6 C7.30555807,6 7,6.224 7,6.5 C7,6.776 7.30555807,7 7.68002539,7 L7.68002539,7 Z M29.3495875,11.2681251 C28.9892121,11.2681251 28.6974383,11.5641678 28.6974383,11.9289346 L28.6974383,31.329423 C28.6974383,32.6246098 27.6597308,33.6783808 26.3832203,33.6783808 L7.61504292,33.6783808 C6.3402692,33.6783808 5.3025617,32.6246098 5.3025617,31.329423 L5.30429845,3.60361494 C5.3433753,2.3234065 6.35850506,1.32161917 7.61504292,1.32161917 L18.388965,1.32161917 C18.748472,1.32161917 19.0402458,1.02557648 19.0402458,0.660809586 C19.0402458,0.296042695 18.748472,0 18.388965,0 L7.61504292,0 C5.64991149,0 4.06339134,1.5647971 4.00260512,3.58246904 L4,31.329423 C4,33.3532625 5.62212351,35 7.61504292,35 L26.3832203,35 C28.3778765,35 30,33.3532625 30,31.329423 L30,11.9289346 C30,11.5641678 29.7082262,11.2681251 29.3495875,11.2681251 L29.3495875,11.2681251 Z M7.68002539,11 L16.3208813,11 C16.6953486,11 17,10.776 17,10.5 C17,10.2233333 16.6953486,10 16.3208813,10 L7.68002539,10 C7.30555807,10 7,10.2233333 7,10.5 C7,10.776 7.30555807,11 7.68002539,11 L7.68002539,11 Z M25.3596945,14 L7.64030555,14 C7.28771063,14 7,14.224 7,14.5 C7,14.776 7.28771063,15 7.64030555,15 L25.3596945,15 C25.7139969,15 26,14.776 26,14.5 C26,14.224 25.7139969,14 25.3596945,14 L25.3596945,14 Z M25.3596945,19 L7.64030555,19 C7.28771063,19 7,19.2233333 7,19.5 C7,19.776 7.28771063,20 7.64030555,20 L25.3596945,20 C25.7139969,20 26,19.776 26,19.5 C26,19.2233333 25.7139969,19 25.3596945,19 L25.3596945,19 Z" id="Send-doc"></path>
                </g>
            </g>
        </g>
    </g>
</svg>