<?xml version="1.0" encoding="UTF-8" standalone="no"?>
<svg width="330px" height="47px" viewBox="0 0 330 47" version="1.1" xmlns="http://www.w3.org/2000/svg" xmlns:xlink="http://www.w3.org/1999/xlink">
    <!-- Generator: Sketch 3.7 (28169) - http://www.bohemiancoding.com/sketch -->
    <title>Filter</title>
    <desc>Created with Sketch.</desc>
    <defs></defs>
    <g id="Page-1" stroke="none" stroke-width="1" fill="none" fill-rule="evenodd">
        <g id="Filter" transform="translate(-32.000000, -36.000000)">
            <g id="mobile" transform="translate(256.000000, 0.000000)">
                <path d="M92.0008621,40 C92.5517241,40 93,39.5504942 93,38.9969918 C93,38.4477869 92.5517241,38 92.0008621,38 C91.4491379,38 91,38.4477869 91,38.9969918 C91,39.5504942 91.4491379,40 92.0008621,40 L92.0008621,40 Z M91.9954212,80 C93.1007326,80 94,79.1007326 94,77.9945055 C94,76.8937729 93.1007326,76 91.9954212,76 C90.8956044,76 90,76.8937729 90,77.9945055 C90,79.1007326 90.8956044,80 91.9954212,80 L91.9954212,80 Z M105.243052,36 L78.7569477,36 C78.3391126,36 78,36.3358499 78,36.749665 L78,82.250335 C78,82.6641501 78.3391126,83 78.7569477,83 L105.243052,83 C105.660887,83 106,82.6641501 106,82.250335 L106,36.749665 C106,36.3358499 105.660887,36 105.243052,36 L105.243052,36 Z M80,75 L105,75 L105,81 L80,81 L80,75 Z M80,43 L105,43 L105,74 L80,74 L80,43 Z M80,38 L105,38 L105,42 L80,42 L80,38 Z" id="Fill-207-Hover" fill="#FFFFFF"></path>
                <path d="M54.0008621,40 C54.5517241,40 55,39.5504942 55,38.9969918 C55,38.4477869 54.5517241,38 54.0008621,38 C53.4491379,38 53,38.4477869 53,38.9969918 C53,39.5504942 53.4491379,40 54.0008621,40 L54.0008621,40 Z M53.9954212,80 C55.1007326,80 56,79.1007326 56,77.9945055 C56,76.8937729 55.1007326,76 53.9954212,76 C52.8956044,76 52,76.8937729 52,77.9945055 C52,79.1007326 52.8956044,80 53.9954212,80 L53.9954212,80 Z M67.2430523,36 L40.7569477,36 C40.3391126,36 40,36.3358499 40,36.749665 L40,82.250335 C40,82.6641501 40.3391126,83 40.7569477,83 L67.2430523,83 C67.6608874,83 68,82.6641501 68,82.250335 L68,36.749665 C68,36.3358499 67.6608874,36 67.2430523,36 L67.2430523,36 Z M42,75 L67,75 L67,81 L42,81 L42,75 Z M42,43 L67,43 L67,74 L42,74 L42,43 Z M42,38 L67,38 L67,42 L42,42 L42,38 Z" id="Fill-207-Normal" fill="#000000"></path>
            </g>
            <g id="web" transform="translate(128.000000, 0.000000)">
                <g>
                    <path d="M97.7497679,69 C98.1636398,69 98.4995359,68.6628808 98.4995359,68.2475017 L98.4995359,45.5049966 L137.500464,45.5049966 L137.500464,68.2475017 C137.500464,68.6628808 137.83636,69 138.250232,69 C138.664104,69 139,68.6628808 139,68.2475017 L139,44.7524983 C139,44.3371192 138.664104,44 138.250232,44 L97.7497679,44 C97.335896,44 97,44.3371192 97,44.7524983 L97,68.2475017 C97,68.6628808 97.335896,69 97.7497679,69 L97.7497679,69 Z M145.712972,70.400447 C145.480197,70.147141 145.132547,70 144.759704,70 L92.2392879,70 C91.867453,70 91.5198025,70.147141 91.2870278,70.400447 C91.0542532,70.6556156 90.9565079,70.9964612 91.0179766,71.3363755 L91.4855413,73.8964425 C91.5984018,74.5148072 92.2181265,75 92.8973046,75 L144.103703,75 C144.781873,75 145.402606,74.5148072 145.515466,73.8964425 L145.982023,71.3354442 C146.043492,70.9964612 145.945747,70.6556156 145.712972,70.400447 L145.712972,70.400447 Z M143.604713,74 L93.3952874,74 L93,72 L144,72 L143.604713,74 L143.604713,74 Z" id="Fill-208-Hover" fill="#FFFFFF"></path>
                    <path d="M32.7497679,69 C33.1636398,69 33.4995359,68.6628808 33.4995359,68.2475017 L33.4995359,45.5049966 L72.5004641,45.5049966 L72.5004641,68.2475017 C72.5004641,68.6628808 72.8363602,69 73.2502321,69 C73.664104,69 74,68.6628808 74,68.2475017 L74,44.7524983 C74,44.3371192 73.664104,44 73.2502321,44 L32.7497679,44 C32.335896,44 32,44.3371192 32,44.7524983 L32,68.2475017 C32,68.6628808 32.335896,69 32.7497679,69 L32.7497679,69 Z M80.7129722,70.400447 C80.4801975,70.147141 80.132547,70 79.7597044,70 L27.2392879,70 C26.867453,70 26.5198025,70.147141 26.2870278,70.400447 C26.0542532,70.6556156 25.9565079,70.9964612 26.0179766,71.3363755 L26.4855413,73.8964425 C26.5984018,74.5148072 27.2181265,75 27.8973046,75 L79.1037031,75 C79.7818735,75 80.4026059,74.5148072 80.5154664,73.8964425 L80.9820234,71.3354442 C81.0434921,70.9964612 80.9457468,70.6556156 80.7129722,70.400447 L80.7129722,70.400447 Z M78.6047126,74 L28.3952874,74 L28,72 L79,72 L78.6047126,74 L78.6047126,74 Z" id="Fill-208-Normal" fill="#000000"></path>
                </g>
            </g>
            <g id="Desktop">
                <path d="M121.99041,79.0202406 C121.606608,78.8175624 120.835883,78.4131804 120.467682,78.087726 C120.330387,77.5625166 120.148367,75.496758 120.08908,73.7233237 C120.074518,73.3199161 119.747922,73.0012826 119.284031,73.0168732 C118.854464,73.0285662 118.515386,73.366688 118.529948,73.7700956 C118.600675,75.8874982 118.778535,78.508673 119.225785,78.9861361 C119.688636,79.4665224 120.502006,79.9137787 121.257129,80.3103654 C121.329937,80.3464187 121.389224,80.3746767 121.433949,80.3980627 C121.427708,80.4370392 121.416267,80.48576 121.397545,80.5383783 L107.639943,80.5383783 C107.629542,80.5198645 107.617061,80.4955041 107.604579,80.4672461 C107.592098,80.434116 107.583777,80.4048836 107.576496,80.3785744 L107.738754,80.2938003 C108.463714,79.9137787 109.276044,79.4665224 109.749296,78.9783408 C110.100855,78.6031912 110.332801,76.846322 110.437853,73.7554794 C110.451374,73.3520718 110.113337,73.0158988 109.682729,73.002257 C109.253161,72.9691269 108.891201,73.3052999 108.87872,73.7096819 C108.817353,75.4899371 108.636373,77.558619 108.500118,78.0857772 C108.122556,78.4170781 107.357032,78.8195113 106.960748,79.0280359 L106.766246,79.1284006 C106.597748,79.2151235 106.502057,79.2716396 106.428209,79.3252323 C106.119295,79.5639639 105.814541,80.0336317 106.139057,80.9671207 C106.508298,81.8216822 107.063719,82 107.463123,82 L121.53276,82 C122.134986,82 122.661285,81.6170551 122.859947,81.0567668 C123.086692,80.5120691 123.081491,79.7374097 122.516709,79.3096417 C122.44078,79.2550745 122.310766,79.1790702 121.99041,79.0202406 L121.99041,79.0202406 Z M134.670521,39 L94.3446676,39 C93.6034803,39 93,39.6037418 93,40.3440081 L93,67.6721726 C93,68.4043486 93.6034803,69 94.3446676,69 L134.670521,69 C135.403608,69 136,68.4043486 136,67.6721726 L136,40.3440081 C136,39.6037418 135.403608,39 134.670521,39 L134.670521,39 Z M95,41 L135,41 L135,68 L95,68 L95,41 Z" id="Fill-209-Hover" fill="#FFFFFF"></path>
                <path d="M60.9904104,79.0202406 C60.606608,78.8175624 59.8358827,78.4131804 59.467682,78.087726 C59.3303868,77.5625166 59.1483667,75.496758 59.0890801,73.7233237 C59.0745185,73.3199161 58.7479224,73.0012826 58.284031,73.0168732 C57.8544635,73.0285662 57.515386,73.366688 57.5299476,73.7700956 C57.6006755,75.8874982 57.7785351,78.508673 58.2257846,78.9861361 C58.6886358,79.4665224 59.5020058,79.9137787 60.2571293,80.3103654 C60.3299374,80.3464187 60.3892239,80.3746767 60.4339489,80.3980627 C60.4277082,80.4370392 60.4162669,80.48576 60.3975448,80.5383783 L46.639943,80.5383783 C46.6295419,80.5198645 46.6170605,80.4955041 46.6045791,80.4672461 C46.5920978,80.434116 46.5837768,80.4048836 46.576496,80.3785744 L46.738754,80.2938003 C47.4637142,79.9137787 48.276044,79.4665224 48.7492964,78.9783408 C49.1008553,78.6031912 49.3328009,76.846322 49.4378525,73.7554794 C49.451374,73.3520718 49.1133366,73.0158988 48.682729,73.002257 C48.2531615,72.9691269 47.8912015,73.3052999 47.8787201,73.7096819 C47.8173533,75.4899371 47.6363733,77.558619 47.5001182,78.0857772 C47.1225564,78.4170781 46.3570318,78.8195113 45.9607479,79.0280359 L45.7662464,79.1284006 C45.5977478,79.2151235 45.5020572,79.2716396 45.428209,79.3252323 C45.1192948,79.5639639 44.8145411,80.0336317 45.139057,80.9671207 C45.5082979,81.8216822 46.0637193,82 46.4631235,82 L60.5327598,82 C61.1349864,82 61.6612846,81.6170551 61.8599466,81.0567668 C62.0866917,80.5120691 62.0814911,79.7374097 61.5167086,79.3096417 C61.4407802,79.2550745 61.3107658,79.1790702 60.9904104,79.0202406 L60.9904104,79.0202406 Z M73.6705206,39 L33.3446676,39 C32.6034803,39 32,39.6037418 32,40.3440081 L32,67.6721726 C32,68.4043486 32.6034803,69 33.3446676,69 L73.6705206,69 C74.4036075,69 75,68.4043486 75,67.6721726 L75,40.3440081 C75,39.6037418 74.4036075,39 73.6705206,39 L73.6705206,39 Z M34,41 L74,41 L74,68 L34,68 L34,41 Z" id="Fill-209-Normal" fill="#000000"></path>
            </g>
        </g>
    </g>
</svg>