<?xml version="1.0" encoding="UTF-8"?>
<svg width="56px" height="60px" viewBox="0 0 56 60" version="1.1" xmlns="http://www.w3.org/2000/svg" xmlns:xlink="http://www.w3.org/1999/xlink">
    <!-- Generator: Sketch 40 (33762) - http://www.bohemiancoding.com/sketch -->
    <title>BTN Send File</title>
    <desc>Created with Sketch.</desc>
    <defs></defs>
    <g id="Page-1" stroke="none" stroke-width="1" fill="none" fill-rule="evenodd">
        <g id="BTN-Send-File">
            <polygon id="Polygon-35" fill="#F6A623" points="28 0 55.7128129 15 55.7128129 45 28 60 0.287187079 45 0.287187079 15"></polygon>
            <path d="M36.43815,27.4647079 L27.0329579,40.776857 C27.0250869,40.7873619 27.0178214,40.7978667 27.0117668,40.8089896 C26.9972358,40.8318531 26.9669629,40.8744905 26.9348736,40.9202177 C26.8973352,40.944935 26.8616131,40.9758317 26.8319457,41.0122898 C24.9538134,43.3202728 21.6183426,43.7528265 19.2382853,41.9948046 C16.7904167,40.1898198 16.1789036,36.7541076 17.8475472,34.1742337 C17.8699491,34.1396294 17.8875074,34.1019355 17.8996166,34.0642415 C17.9074876,34.0537366 17.9129367,34.0469394 17.9135421,34.0450856 L29.4868811,17.663659 C30.8546119,15.7777249 33.4835126,15.3606195 35.3452975,16.7367582 C37.1640948,18.0776747 37.6333251,20.6427181 36.4133262,22.5756152 C36.314031,22.7226835 34.8427669,24.8125358 26.3294151,36.8591563 L26.1114501,37.1693591 C26.0751226,37.2014917 26.0448496,37.2404215 26.0200258,37.2842948 L25.9382889,37.4264196 C25.5126516,38.0295231 24.8811584,38.4268545 24.1612683,38.5454978 C23.4407727,38.6629053 22.721488,38.48803 22.131166,38.0542404 C20.93478,37.1656515 20.65082,35.4342009 21.4978564,34.1946255 C21.5214693,34.1587854 21.5402385,34.1210914 21.5535586,34.0803078 C21.5559804,34.0772181 21.5571913,34.0741284 21.5571913,34.0735105 L29.6206875,22.6330831 C29.7672084,22.4254573 29.721799,22.1356463 29.5177595,21.9867243 C29.3143255,21.8365663 29.0303654,21.8847652 28.8838445,22.0923909 L20.8161101,33.5383798 C20.7822045,33.5878145 20.7573807,33.6347775 20.7198422,33.7089295 C20.7162095,33.7151089 20.7137877,33.7206703 20.7101549,33.7274675 C19.6342552,35.3730254 20.0241704,37.6352813 21.5983625,38.8050301 C22.3854585,39.3840341 23.3475321,39.6200848 24.3065783,39.4600399 C25.26623,39.3024668 26.1066064,38.7728975 26.6993503,37.9300357 L26.7502088,37.843525 C26.7623179,37.8299304 26.7750326,37.8144821 26.7859308,37.7984158 L35.8363243,24.9855573 C36.6191821,23.8751301 36.9915391,23.3474146 37.1489583,23.0600754 L37.1768094,23.0786134 C38.6595772,20.7310827 38.087419,17.6154601 35.8774955,15.9853506 C33.6130807,14.3138395 30.4186818,14.8199274 28.7536709,17.1167875 L17.1827538,33.4957424 C17.0804313,33.6347775 17.0223073,33.713873 16.9980889,33.8090348 C15.1762643,36.7880939 15.9082636,40.683549 18.7060873,42.7462122 C19.8497984,43.5909278 21.1848344,44 22.510183,44 C24.3265584,44 26.127192,43.2312903 27.4010767,41.7599898 C27.4283223,41.7457773 27.454357,41.7272393 27.4791808,41.7068475 C27.4816026,41.7043757 27.6692948,41.5159059 27.7782773,41.3051904 L37.174993,28.0066359 C37.321514,27.7990101 37.2754991,27.5098171 37.0720651,27.3596591 C36.868631,27.2095012 36.584671,27.2577001 36.43815,27.4647079" id="Done" fill="#F1EFEF"></path>
        </g>
    </g>
</svg>