<?xml version="1.0" encoding="UTF-8" standalone="no"?>
<svg width="277px" height="102px" viewBox="0 0 277 102" version="1.1" xmlns="http://www.w3.org/2000/svg" xmlns:xlink="http://www.w3.org/1999/xlink">
    <!-- Generator: Sketch 3.7 (28169) - http://www.bohemiancoding.com/sketch -->
    <title>Header</title>
    <desc>Created with Sketch.</desc>
    <defs></defs>
    <g id="Page-1" stroke="none" stroke-width="1" fill="none" fill-rule="evenodd" stroke-linecap="round" stroke-linejoin="round">
        <g id="Artboard-1" transform="translate(401.000000, 253.000000) scale(1, -1) translate(-401.000000, -253.000000) translate(-99.000000, -97.000000)">
            <g id="Header" transform="translate(237.500000, 552.000000) scale(1, -1) translate(-237.500000, -552.000000) translate(100.000000, 502.000000)">
                <g id="Who" stroke-width="2">
                    <g id="spa-alien" transform="translate(0.000000, 54.000000)" stroke="#FFFFFF">
                        <path d="M29.7291667,30.6854074 C32.9808333,27.4372963 35,22.9037407 35,17.8888889 C35,8.00911111 27.165,0 17.5,0 C7.835,0 0,8.00911111 0,17.8888889 C0,22.8952222 2.0125,27.4228148 5.25666667,30.6692222 L5.25333333,30.6666667 C10.2533333,35.7777778 12.5,46 17.5,46 C22.5,46 24.7458333,35.7777778 29.7458333,30.6666667 L29.7291667,30.6854074 L29.7291667,30.6854074 Z" id="Stroke-416"></path>
                        <path d="M15,37 C15,37 16.6284336,38 17.5,38 C18.2951003,38 20,37 20,37" id="Stroke-417"></path>
                        <path d="M31,20 C31,23.2 29.3333333,28 21,28 C21,23.2 22.6666667,20 31,20 L31,20 Z" id="Stroke-418"></path>
                        <path d="M5,20 C5,23.2 6.66666667,28 15,28 C15,23.2 13.3333333,20 5,20 L5,20 Z" id="Stroke-419"></path>
                    </g>
                    <g id="spa-alien" stroke="#F6A623">
                        <path d="M29.7291667,30.6854074 C32.9808333,27.4372963 35,22.9037407 35,17.8888889 C35,8.00911111 27.165,0 17.5,0 C7.835,0 0,8.00911111 0,17.8888889 C0,22.8952222 2.0125,27.4228148 5.25666667,30.6692222 L5.25333333,30.6666667 C10.2533333,35.7777778 12.5,46 17.5,46 C22.5,46 24.7458333,35.7777778 29.7458333,30.6666667 L29.7291667,30.6854074 L29.7291667,30.6854074 Z" id="Stroke-416"></path>
                        <path d="M15,37 C15,37 16.6284336,38 17.5,38 C18.2951003,38 20,37 20,37" id="Stroke-417"></path>
                        <path d="M31,20 C31,23.2 29.3333333,28 21,28 C21,23.2 22.6666667,20 31,20 L31,20 Z" id="Stroke-418"></path>
                        <path d="M5,20 C5,23.2 6.66666667,28 15,28 C15,23.2 13.3333333,20 5,20 L5,20 Z" id="Stroke-419"></path>
                    </g>
                </g>
                <g id="Tech" transform="translate(55.000000, 0.000000)" stroke-width="2">
                    <g id="spa-rocket" transform="translate(0.000000, 54.000000)" stroke="#FFFFFF">
                        <path d="M43.5171217,0.504827338 C41.9076502,-1.17780198 31.4448285,1.34570404 25.0061046,8.07709723 C18.5682185,14.8084904 13,27.360327 13,27.360327 L17.8292524,32.4090909 C17.8292524,32.4090909 29.835357,26.5877716 36.2740809,19.8572543 C42.7128048,13.1258611 45.1265932,2.18745666 43.5171217,0.504827338 L43.5171217,0.504827338 Z" id="Stroke-90"></path>
                        <polyline id="Stroke-91" points="19 15.6818182 10.1364869 15.6818182 0 24.0454545 14.0035567 24.0454545"></polyline>
                        <polyline id="Stroke-92" points="28 26.1363636 28 35.4027637 20 46 20 31.359918"></polyline>
                        <path d="M10,35.5454545 L24,20.9090909" id="Stroke-93"></path>
                        <path d="M38,10.9772727 C38,12.9980057 36.432875,14.6363636 34.5,14.6363636 C32.567125,14.6363636 31,12.9980057 31,10.9772727 C31,8.95653977 32.567125,7.31818182 34.5,7.31818182 C36.432875,7.31818182 38,8.95653977 38,10.9772727 L38,10.9772727 Z" id="Stroke-94"></path>
                        <path d="M15,35.5454545 C15,45.1287879 0,46 0,46 C0,46 0.833333333,30.3181818 10,30.3181818" id="Stroke-95"></path>
                    </g>
                    <g id="spa-rocket" stroke="#F6A623">
                        <path d="M43.5171217,0.504827338 C41.9076502,-1.17780198 31.4448285,1.34570404 25.0061046,8.07709723 C18.5682185,14.8084904 13,27.360327 13,27.360327 L17.8292524,32.4090909 C17.8292524,32.4090909 29.835357,26.5877716 36.2740809,19.8572543 C42.7128048,13.1258611 45.1265932,2.18745666 43.5171217,0.504827338 L43.5171217,0.504827338 Z" id="Stroke-90"></path>
                        <polyline id="Stroke-91" points="19 15.6818182 10.1364869 15.6818182 0 24.0454545 14.0035567 24.0454545"></polyline>
                        <polyline id="Stroke-92" points="28 26.1363636 28 35.4027637 20 46 20 31.359918"></polyline>
                        <path d="M10,35.5454545 L24,20.9090909" id="Stroke-93"></path>
                        <path d="M38,10.9772727 C38,12.9980057 36.432875,14.6363636 34.5,14.6363636 C32.567125,14.6363636 31,12.9980057 31,10.9772727 C31,8.95653977 32.567125,7.31818182 34.5,7.31818182 C36.432875,7.31818182 38,8.95653977 38,10.9772727 L38,10.9772727 Z" id="Stroke-94"></path>
                        <path d="M15,35.5454545 C15,45.1287879 0,46 0,46 C0,46 0.833333333,30.3181818 10,30.3181818" id="Stroke-95"></path>
                    </g>
                </g>
                <g id="Port" transform="translate(113.000000, 0.000000)" stroke-width="2">
                    <g id="spa-stars" transform="translate(0.000000, 54.000000)" stroke="#FFFFFF">
                        <polygon id="Stroke-123" points="17.5 20 21.71875 28.3333333 31 29.1666667 24.25 35.955 25.9375 45 17.5 40.8333333 9.0625 45 10.75 35.955 4 29.1666667 13.28125 28.3333333"></polygon>
                        <polygon id="Stroke-124" points="7 0 9.1875 4.33333333 14 4.76666667 10.5 8.29573333 11.375 13 7 10.8333333 2.625 13 3.5 8.29573333 0 4.76666667 4.8125 4.33333333"></polygon>
                        <polygon id="Stroke-125" points="36 4 39.09 10.2544545 46 10.9090909 41 16.1263182 42.6666667 23 36 19.7544545 29.3333333 23 31 16.1263182 26 10.9090909 32.91 10.2544545"></polygon>
                    </g>
                    <g id="spa-stars" stroke="#F6A623">
                        <polygon id="Stroke-123" points="17.5 20 21.71875 28.3333333 31 29.1666667 24.25 35.955 25.9375 45 17.5 40.8333333 9.0625 45 10.75 35.955 4 29.1666667 13.28125 28.3333333"></polygon>
                        <polygon id="Stroke-124" points="7 0 9.1875 4.33333333 14 4.76666667 10.5 8.29573333 11.375 13 7 10.8333333 2.625 13 3.5 8.29573333 0 4.76666667 4.8125 4.33333333"></polygon>
                        <polygon id="Stroke-125" points="36 4 39.09 10.2544545 46 10.9090909 41 16.1263182 42.6666667 23 36 19.7544545 29.3333333 23 31 16.1263182 26 10.9090909 32.91 10.2544545"></polygon>
                    </g>
                </g>
                <g id="Cont" transform="translate(171.000000, 0.000000)" stroke-width="2">
                    <g id="spa-satellite" transform="translate(0.000000, 54.000000)" stroke="#FFFFFF">
                        <path d="M9,28.0594212 C11.7458446,25.3135263 16.1963096,25.3135263 18.9412755,28.0594212 C21.6862415,30.8035587 21.6862415,35.2549838 18.9412755,38 L9,28.0594212 L9,28.0594212 Z" id="Stroke-451"></path>
                        <path d="M14,32 L12,34" id="Stroke-452"></path>
                        <polygon id="Stroke-453" points="26 8.5 17.5 17 9 8.5 17.5 0"></polygon>
                        <polygon id="Stroke-454" points="46 28.5 37.5 37 29 28.5 37.5 20"></polygon>
                        <path d="M7,34 C7,36.7616667 9.23916667,39 12,39" id="Stroke-455"></path>
                        <path d="M4,34 C4,38.4184 7.5816,42 12,42" id="Stroke-456"></path>
                        <path d="M0,34 C0,40.6274286 5.37257143,46 12,46" id="Stroke-457"></path>
                        <path d="M33,25 L31,22" id="Stroke-458"></path>
                        <path d="M24,15 L21,13" id="Stroke-459"></path>
                        <path d="M29.1546364,10.5182727 C31.1781364,8.49390909 34.4590909,8.49390909 36.4817273,10.5182727 C38.5060909,12.5417727 38.5060909,15.8227273 36.4817273,17.8453636 L27.8453636,26.4817273 C25.8227273,28.5060909 22.5417727,28.5060909 20.5182727,26.4817273 C18.4939091,24.4590909 18.4939091,21.1781364 20.5182727,19.1546364 L29.1546364,10.5182727 L29.1546364,10.5182727 Z" id="Stroke-460"></path>
                    </g>
                    <g id="spa-satellite" stroke="#F6A623">
                        <path d="M9,28.0594212 C11.7458446,25.3135263 16.1963096,25.3135263 18.9412755,28.0594212 C21.6862415,30.8035587 21.6862415,35.2549838 18.9412755,38 L9,28.0594212 L9,28.0594212 Z" id="Stroke-451"></path>
                        <path d="M14,32 L12,34" id="Stroke-452"></path>
                        <polygon id="Stroke-453" points="26 8.5 17.5 17 9 8.5 17.5 0"></polygon>
                        <polygon id="Stroke-454" points="46 28.5 37.5 37 29 28.5 37.5 20"></polygon>
                        <path d="M7,34 C7,36.7616667 9.23916667,39 12,39" id="Stroke-455"></path>
                        <path d="M4,34 C4,38.4184 7.5816,42 12,42" id="Stroke-456"></path>
                        <path d="M0,34 C0,40.6274286 5.37257143,46 12,46" id="Stroke-457"></path>
                        <path d="M33,25 L31,22" id="Stroke-458"></path>
                        <path d="M24,15 L21,13" id="Stroke-459"></path>
                        <path d="M29.1546364,10.5182727 C31.1781364,8.49390909 34.4590909,8.49390909 36.4817273,10.5182727 C38.5060909,12.5417727 38.5060909,15.8227273 36.4817273,17.8453636 L27.8453636,26.4817273 C25.8227273,28.5060909 22.5417727,28.5060909 20.5182727,26.4817273 C18.4939091,24.4590909 18.4939091,21.1781364 20.5182727,19.1546364 L29.1546364,10.5182727 L29.1546364,10.5182727 Z" id="Stroke-460"></path>
                    </g>
                </g>
                <g id="@" transform="translate(228.000000, 0.000000)" stroke-width="1.5">
                    <g id="spa-launch" transform="translate(0.000000, 54.000000)" stroke="#FFFFFF">
                        <path d="M27.3333333,22 L20.6666667,22 C20.6666667,22 19,16.9217752 19,11.8469349 C19,5.07653257 24,0 24,0 C24,0 29,5.07653257 29,11.8452427 C29,16.9217752 27.3333333,22 27.3333333,22 L27.3333333,22 Z" id="Stroke-96"></path>
                        <path d="M23.75,14 L23.75,22" id="Stroke-97"></path>
                        <polyline id="Stroke-98" points="21 22 14 22 14 18.8 19.310375 14"></polyline>
                        <polyline id="Stroke-99" points="27 22 34 22 34 18.8 28.689625 14"></polyline>
                        <path d="M15,35 C15.3914677,29.9591067 19.338697,26 24.1489914,26 C28.3708324,26 31.9274287,29.0488337 33,33.2008933" id="Stroke-100"></path>
                        <path d="M40,34 C39.8210473,31.1741667 37.5158109,29 34.7127605,29 C33.7211998,29 32.7930859,29.28 32,29.7666667" id="Stroke-101"></path>
                        <path d="M35,39 C35,39 34.1666667,36 30,36" id="Stroke-102"></path>
                        <path d="M22,35.1644737 C19.3658537,34.3585526 18.4878049,36.7763158 18.4878049,36.7763158 C18.4878049,36.7763158 15.8536585,35.1644737 14.097561,36.7763158 C12.3414634,38.3881579 13.2195122,40 13.2195122,40" id="Stroke-103"></path>
                        <path d="M6.71260714,38.284 C6.01180357,37.7465714 5.140625,37.4285714 4.19642857,37.4285714 C1.87916071,37.4285714 0,39.3477143 0,41.7142857 C0,44.0817143 1.87916071,46 4.19642857,46 L42.8035714,46 C45.1216786,46 47,44.0817143 47,41.7142857 C47,37.4542857 43.6185179,34 39.4464286,34 C38.6851964,34 37.9491429,34.1157143 37.2558929,34.3291429" id="Stroke-104"></path>
                        <path d="M15,31.7404771 C14.0018024,31.2657675 12.8872345,31 11.7114646,31 C7.71608808,31 4.4258287,34.0633196 4,38" id="Stroke-105"></path>
                    </g>
                    <g id="spa-launch" stroke="#F6A623">
                        <path d="M27.3333333,22 L20.6666667,22 C20.6666667,22 19,16.9217752 19,11.8469349 C19,5.07653257 24,0 24,0 C24,0 29,5.07653257 29,11.8452427 C29,16.9217752 27.3333333,22 27.3333333,22 L27.3333333,22 Z" id="Stroke-96"></path>
                        <path d="M23.75,14 L23.75,22" id="Stroke-97"></path>
                        <polyline id="Stroke-98" points="21 22 14 22 14 18.8 19.310375 14"></polyline>
                        <polyline id="Stroke-99" points="27 22 34 22 34 18.8 28.689625 14"></polyline>
                        <path d="M15,35 C15.3914677,29.9591067 19.338697,26 24.1489914,26 C28.3708324,26 31.9274287,29.0488337 33,33.2008933" id="Stroke-100"></path>
                        <path d="M40,34 C39.8210473,31.1741667 37.5158109,29 34.7127605,29 C33.7211998,29 32.7930859,29.28 32,29.7666667" id="Stroke-101"></path>
                        <path d="M35,39 C35,39 34.1666667,36 30,36" id="Stroke-102"></path>
                        <path d="M22,35.1644737 C19.3658537,34.3585526 18.4878049,36.7763158 18.4878049,36.7763158 C18.4878049,36.7763158 15.8536585,35.1644737 14.097561,36.7763158 C12.3414634,38.3881579 13.2195122,40 13.2195122,40" id="Stroke-103"></path>
                        <path d="M6.71260714,38.284 C6.01180357,37.7465714 5.140625,37.4285714 4.19642857,37.4285714 C1.87916071,37.4285714 0,39.3477143 0,41.7142857 C0,44.0817143 1.87916071,46 4.19642857,46 L42.8035714,46 C45.1216786,46 47,44.0817143 47,41.7142857 C47,37.4542857 43.6185179,34 39.4464286,34 C38.6851964,34 37.9491429,34.1157143 37.2558929,34.3291429" id="Stroke-104"></path>
                        <path d="M15,31.7404771 C14.0018024,31.2657675 12.8872345,31 11.7114646,31 C7.71608808,31 4.4258287,34.0633196 4,38" id="Stroke-105"></path>
                    </g>
                </g>
            </g>
        </g>
    </g>
</svg>