<?xml version="1.0" encoding="UTF-8" standalone="no"?>
<svg width="152px" height="65px" viewBox="0 0 152 65" version="1.1" xmlns="http://www.w3.org/2000/svg" xmlns:xlink="http://www.w3.org/1999/xlink">
    <!-- Generator: Sketch 3.8.3 (29802) - http://www.bohemiancoding.com/sketch -->
    <title>Group</title>
    <desc>Created with Sketch.</desc>
    <defs></defs>
    <g id="Page-1" stroke="none" stroke-width="1" fill="none" fill-rule="evenodd">
        <g id="Group" fill="#000000">
            <path d="M119.496114,33 C126.94171,33 133,26.9430052 133,19.4974093 C133,12.0556995 126.94171,6 119.496114,6 C112.054404,6 106,12.0556995 106,19.4974093 C106,26.9430052 112.054404,33 119.496114,33 L119.496114,33 Z M119.496133,8 C125.83905,8 131,13.1583726 131,19.4974221 C131,25.8403385 125.83905,31 119.496133,31 C113.157084,31 108,25.8403385 108,19.4974221 C108,13.1583726 113.157084,8 119.496133,8 L119.496133,8 Z M139.408836,29.0299448 C137.613483,29.0299448 135.931442,28.4021539 134.54275,27.2148673 C134.141125,26.869451 133.544352,26.929866 133.214491,27.3514578 C132.88337,27.7717363 132.942544,28.3929603 133.345428,28.7383767 C135.050132,30.1962175 137.203045,31 139.408836,31 C144.697951,31 149,26.5135277 149,20.9986866 C149,15.4851589 144.697951,11 139.408836,11 C137.200527,11 135.047614,11.8024691 133.344169,13.26031 C132.942544,13.6044129 132.88337,14.225637 133.214491,14.6459154 C133.544352,15.0661939 134.141125,15.1279222 134.544009,14.7838193 C135.908779,13.6136065 137.637405,12.9700552 139.408836,12.9700552 C143.655488,12.9700552 147.11148,16.571316 147.11148,20.9986866 C147.11148,25.4273706 143.655488,29.0299448 139.408836,29.0299448 L139.408836,29.0299448 Z M132.991856,40.152683 C129.542992,34.2788095 122.302796,35.0138568 122.097825,35.0450801 L116.199491,35.0450801 C115.939776,35.0398762 110.114009,34.88376 106.690607,39.9120038 C104.792395,42.6934747 102.004277,53.3666215 101.02398,57.8081284 C100.906853,58.3350207 101.230224,58.8567092 101.744562,58.9750973 C102.2589,59.0960874 102.769418,58.7643404 102.885272,58.2374481 C103.916493,53.5734755 106.635863,43.4051046 108.25781,41.0282349 C111.073937,36.8911546 116.093823,37.0056398 116.16639,36.996533 L122.199674,36.9913292 C122.26333,36.9835234 128.579245,36.3629613 131.381368,41.2012637 C131.403011,41.2389918 131.4272,41.2754189 131.453935,41.3105451 C133.173911,43.5286966 136.053694,53.51233 137.114197,58.241351 C137.216046,58.6927871 137.609438,58.9985148 138.044843,58.9985148 C138.114864,58.9985148 138.186158,58.9907089 138.258726,58.9750973 C138.771791,58.8541072 139.093888,58.3311178 138.975489,57.8042255 C138.142873,54.0951639 135.191796,43.0785615 132.991856,40.152683 L132.991856,40.152683 Z M99.5884579,31 C101.795175,31 103.950281,30.1962175 105.654728,28.7383767 C106.057551,28.3929603 106.116716,27.7717363 105.785646,27.3514578 C105.454575,26.929866 104.86041,26.869451 104.457587,27.2148673 C103.069105,28.4021539 101.386058,29.0299448 99.5884579,29.0299448 C95.3424466,29.0299448 91.8882351,25.4273706 91.8882351,20.9986866 C91.8882351,16.571316 95.3424466,12.9700552 99.5884579,12.9700552 C101.386058,12.9700552 103.067846,13.5965327 104.452552,14.7838193 C104.856634,15.1279222 105.452057,15.0661939 105.781869,14.6459154 C106.11294,14.225637 106.053775,13.6044129 105.650951,13.26031 C103.949022,11.8024691 101.795175,11 99.5884579,11 C94.3013996,11 90,15.4851589 90,20.9986866 C90,26.5135277 94.3013996,31 99.5884579,31 L99.5884579,31 Z M151.977534,43.8208243 C150.964222,39.1610117 149.940763,36.0527461 148.936329,34.5800694 C146.437924,30.9119539 142.155125,31.025734 142.009279,31.0296129 L137.920519,31.0360777 C137.713798,31.0076327 132.804496,30.5111376 130.174196,34.3059628 C129.87109,34.7429819 129.973816,35.3493781 130.402476,35.6571016 C130.829868,35.9648251 131.424666,35.8626816 131.727772,35.4243696 C133.7024,32.5734021 137.674483,32.956117 137.816524,32.9690466 L142.043521,32.9690466 C142.076495,32.9444804 145.460122,32.8759537 147.375143,35.6868396 C147.967404,36.5557059 148.924915,38.7459729 150.119583,44.239742 C150.218505,44.6909836 150.611655,45 151.047925,45 C151.116409,45 151.184893,44.9922423 151.253377,44.9767268 C151.767009,44.8603608 152.090406,44.3431785 151.977534,43.8208243 L151.977534,43.8208243 Z M108.171989,35.7899455 C108.44966,36.2527753 109.050845,36.4053282 109.517123,36.1299574 C109.98471,35.8571722 110.139263,35.2624747 109.862902,34.8022305 C107.264319,30.4725741 101.771145,31.0116803 101.645408,31.0310726 L97.351983,31.0310726 C97.1738544,31.0310726 92.742904,30.9095475 90.1613482,34.5811582 C89.1187717,36.0614379 88.0630974,39.1706716 87.0231404,43.8209475 C86.9065709,44.3445399 87.2418719,44.8616682 87.7710188,44.9767292 C87.8430562,44.9922431 87.9137837,45 87.9832015,45 C88.4337622,45 88.8411005,44.6910159 88.9419528,44.2385286 C89.8980846,39.960585 90.9039876,36.9237493 91.7749843,35.6878127 C93.7330898,32.9017841 97.1345613,32.9703036 97.317929,32.9703036 L101.748879,32.9651324 C101.794721,32.9599611 106.225672,32.5462585 108.171989,35.7899455 L108.171989,35.7899455 Z" id="Fill-92"></path>
            <path d="M32.502296,0 C14.5811845,0 0,14.5786523 0,32.4977037 C0,50.4198168 14.5811845,65 32.502296,65 C50.4218768,65 65,50.4198168 65,32.4977037 C65,14.5786523 50.4218768,0 32.502296,0 L32.502296,0 Z M32.9701985,62 L32.9701985,57.1660067 C32.9701985,56.5354858 32.4584454,56.0237588 31.8278926,56.0237588 C31.1973397,56.0237588 30.6840636,56.5354858 30.6840636,57.1660067 L30.6840636,61.981724 C15.0771183,61.3009443 2.54982992,48.6950959 2,33.0600061 L7.08402295,33.0600061 C7.71305275,33.0600061 8.22632888,32.548279 8.22632888,31.9177581 C8.22632888,31.2872373 7.71305275,30.7755102 7.08402295,30.7755102 L2.00761537,30.7755102 C2.63969132,15.2089552 15.1456567,2.68230277 30.7114789,2.01827597 C30.7069097,2.06396588 30.6840636,2.10356381 30.6840636,2.15229973 L30.6840636,7.23758757 C30.6840636,7.86963143 31.1973397,8.37983552 31.8278926,8.37983552 C32.4584454,8.37983552 32.9701985,7.86963143 32.9701985,7.23758757 L32.9701985,2.15229973 C32.9701985,2.09747182 32.9458293,2.05178191 32.9366909,2 C48.663959,2.48735912 61.3542164,15.0901614 61.9908616,30.7755102 L57.018023,30.7755102 C56.3874702,30.7755102 55.8757171,31.2872373 55.8757171,31.9177581 C55.8757171,32.548279 56.3874702,33.0600061 57.018023,33.0600061 L62,33.0600061 C61.4471239,48.8108437 48.7355435,61.4943649 32.9701985,62 L32.9701985,62 Z M45.1871368,22.0914104 L34.7672847,29.4368649 C34.1408037,28.9312948 33.3577026,28.6158933 32.4947558,28.6158933 C32.1047407,28.6158933 31.734687,28.6947437 31.3815237,28.8076079 L22.0933296,15.4927153 C21.7309534,14.9701383 21.0138784,14.8418131 20.48874,15.2113277 C19.968208,15.5792962 19.8438331,16.3028644 20.2108158,16.8254415 L29.5174358,30.1681636 C29.0874979,30.7742293 28.8264642,31.5086202 28.8264642,32.3094927 C28.8264642,34.3441419 30.4694412,36 32.4947558,36 C34.5154639,36 36.1584409,34.3441419 36.1584409,32.3094927 C36.1584409,31.9863608 36.1046986,31.6786896 36.027924,31.380295 L46.5076603,23.990004 C47.0312633,23.6235816 47.1556381,22.9000134 46.7917264,22.3743441 C46.4278147,21.850221 45.7107397,21.7234419 45.1871368,22.0914104 L45.1871368,22.0914104 Z M32.5025352,34 C31.6726761,34 31,33.3277027 31,32.5016892 C31,31.6739865 31.6726761,31 32.5025352,31 C33.3273239,31 34,31.6739865 34,32.5016892 C34,33.3277027 33.3273239,34 32.5025352,34 L32.5025352,34 Z" id="Fill-158"></path>
        </g>
    </g>
</svg>