<?xml version="1.0" encoding="UTF-8" standalone="no"?>
<svg width="25px" height="44px" viewBox="0 0 25 44" version="1.1" xmlns="http://www.w3.org/2000/svg" xmlns:xlink="http://www.w3.org/1999/xlink">
    <!-- Generator: Sketch 3.7 (28169) - http://www.bohemiancoding.com/sketch -->
    <title>Shape Copy 2</title>
    <desc>Created with Sketch.</desc>
    <defs></defs>
    <g id="BrainSpark-new" stroke="none" stroke-width="1" fill="none" fill-rule="evenodd">
        <g id="BS-hexagon" transform="translate(-707.000000, -1447.000000)" fill="#E44D26">
            <g id="Technologies" transform="translate(130.000000, 974.000000)">
                <g id="Grid" transform="translate(0.000000, 126.000000)">
                    <g id="13" transform="translate(502.000000, 347.000000)">
                        <path d="M94.0746812,0 L80.4499089,0 C77.7249545,0 75,2.75 75,5.5 L75,38.5 C75,41.25 77.7249545,44 80.4499089,44 L94.0746812,44 C96.7996357,44 99.5245902,41.25 99.5245902,38.5 L99.5245902,5.5 C99.5245902,2.75 96.7996357,0 94.0746812,0 L94.0746812,0 Z M87.2622951,41.25 C86.4993078,41.25 85.8998179,40.645 85.8998179,39.875 C85.8998179,39.105 86.4993078,38.5 87.2622951,38.5 C88.0252823,38.5 88.6247723,39.105 88.6247723,39.875 C88.6247723,40.645 88.0252823,41.25 87.2622951,41.25 L87.2622951,41.25 Z M96.7996357,35.75 L77.7249545,35.75 L77.7249545,2.75 L96.7996357,2.75 L96.7996357,35.75 L96.7996357,35.75 Z" id="Shape-Copy-2"></path>
                    </g>
                </g>
            </g>
        </g>
    </g>
</svg>