<svg width="277" height="102" viewBox="0 0 277 102" xmlns="http://www.w3.org/2000/svg"><title>Header</title><g fill="none" fill-rule="evenodd" stroke-linecap="round" stroke-linejoin="round"><g stroke-width="2"><g stroke="#FFF"><path d="M30.73 85.685C33.98 82.437 36 77.904 36 72.89 36 63.009 28.165 55 18.5 55S1 63.01 1 72.889c0 5.006 2.013 9.534 5.257 12.78l-.004-.002C11.253 90.777 13.5 101 18.5 101s7.246-10.222 12.246-15.333l-.017.018z"/><path d="M16 92s1.628 1 2.5 1c.795 0 2.5-1 2.5-1M32 75c0 3.2-1.667 8-10 8 0-4.8 1.667-8 10-8zM6 75c0 3.2 1.667 8 10 8 0-4.8-1.667-8-10-8z"/></g><g stroke="#F6A623"><path d="M30.73 31.685C33.98 28.437 36 23.904 36 18.89 36 9.009 28.165 1 18.5 1S1 9.01 1 18.889c0 5.006 2.013 9.534 5.257 12.78l-.004-.002C11.253 36.777 13.5 47 18.5 47s7.246-10.222 12.246-15.333l-.017.018z"/><path d="M16 38s1.628 1 2.5 1c.795 0 2.5-1 2.5-1M32 21c0 3.2-1.667 8-10 8 0-4.8 1.667-8 10-8zM6 21c0 3.2 1.667 8 10 8 0-4.8-1.667-8-10-8z"/></g></g><g stroke-width="2"><g stroke="#FFF"><path d="M99.517 55.505c-1.61-1.683-12.072.84-18.51 7.572C74.567 69.808 69 82.36 69 82.36l4.83 5.05s12.005-5.822 18.444-12.553c6.439-6.731 8.853-17.67 7.243-19.352zM75 70.682h-8.864L56 79.045h14.004"/><path d="M84 81.136v9.267L76 101V86.36M66 90.545L80 75.91M94 65.977c0 2.021-1.567 3.66-3.5 3.66s-3.5-1.639-3.5-3.66c0-2.02 1.567-3.659 3.5-3.659s3.5 1.639 3.5 3.66zM71 90.545C71 100.13 56 101 56 101s.833-15.682 10-15.682"/></g><g stroke="#F6A623"><path d="M99.517 1.505c-1.61-1.683-12.072.84-18.51 7.572C74.567 15.808 69 28.36 69 28.36l4.83 5.05s12.005-5.822 18.444-12.553c6.439-6.731 8.853-17.67 7.243-19.352zM75 16.682h-8.864L56 25.045h14.004"/><path d="M84 27.136v9.267L76 47V32.36M66 36.545L80 21.91M94 11.977c0 2.021-1.567 3.66-3.5 3.66s-3.5-1.639-3.5-3.66c0-2.02 1.567-3.659 3.5-3.659s3.5 1.639 3.5 3.66zM71 36.545C71 46.13 56 47 56 47s.833-15.682 10-15.682"/></g></g><g stroke-width="2"><g stroke="#FFF"><path d="M131.5 75l4.219 8.333 9.281.834-6.75 6.788 1.688 9.045-8.438-4.167-8.438 4.167 1.688-9.045-6.75-6.788 9.281-.834zM121 55l2.188 4.333 4.812.434-3.5 3.529.875 4.704L121 65.833 116.625 68l.875-4.704-3.5-3.53 4.813-.433zM150 59l3.09 6.254 6.91.655-5 5.217L156.667 78 150 74.754 143.333 78 145 71.126l-5-5.217 6.91-.655z"/></g><g stroke="#F6A623"><path d="M131.5 21l4.219 8.333 9.281.834-6.75 6.788L139.938 46l-8.438-4.167L123.062 46l1.688-9.045-6.75-6.788 9.281-.834zM121 1l2.188 4.333 4.812.434-3.5 3.529.875 4.704L121 11.833 116.625 14l.875-4.704-3.5-3.53 4.813-.433zM150 5l3.09 6.254 6.91.655-5 5.217L156.667 24 150 20.754 143.333 24 145 17.126l-5-5.217 6.91-.655z"/></g></g><g stroke-width="2"><g stroke="#FFF"><path d="M181 83.06a7.03 7.03 0 1 1 9.941 9.94L181 83.06zM186 87l-2 2M198 63.5l-8.5 8.5-8.5-8.5 8.5-8.5zM218 83.5l-8.5 8.5-8.5-8.5 8.5-8.5zM179 89a5 5 0 0 0 5 5M176 89a8 8 0 0 0 8 8M172 89c0 6.627 5.373 12 12 12M205 80l-2-3M196 70l-3-2M201.155 65.518a5.18 5.18 0 0 1 7.327 0 5.18 5.18 0 0 1 0 7.327l-8.637 8.637a5.18 5.18 0 0 1-7.327 0 5.18 5.18 0 0 1 0-7.327l8.637-8.637z"/></g><g stroke="#F6A623"><path d="M181 29.06a7.03 7.03 0 1 1 9.941 9.94L181 29.06zM186 33l-2 2M198 9.5l-8.5 8.5-8.5-8.5 8.5-8.5zM218 29.5l-8.5 8.5-8.5-8.5 8.5-8.5zM179 35a5 5 0 0 0 5 5M176 35a8 8 0 0 0 8 8M172 35c0 6.627 5.373 12 12 12M205 26l-2-3M196 16l-3-2M201.155 11.518a5.18 5.18 0 0 1 7.327 0 5.18 5.18 0 0 1 0 7.327l-8.637 8.637a5.18 5.18 0 0 1-7.327 0 5.18 5.18 0 0 1 0-7.327l8.637-8.637z"/></g></g><g stroke-width="1.5"><g stroke="#FFF"><path d="M256.333 77h-6.666S248 71.922 248 66.847c0-6.77 5-11.847 5-11.847s5 5.077 5 11.845C258 71.922 256.333 77 256.333 77zM252.75 69v8"/><path d="M250 77h-7v-3.2l5.31-4.8M256 77h7v-3.2l-5.31-4.8M244 90c.391-5.04 4.339-9 9.149-9 4.222 0 7.778 3.049 8.851 7.2M269 89c-.179-2.826-2.484-5-5.287-5-.992 0-1.92.28-2.713.767M264 94s-.833-3-5-3M251 90.164c-2.634-.805-3.512 1.612-3.512 1.612s-2.634-1.612-4.39 0C241.34 93.388 242.22 95 242.22 95"/><path d="M235.713 93.284a4.119 4.119 0 0 0-2.517-.855c-2.317 0-4.196 1.919-4.196 4.285 0 2.368 1.88 4.286 4.196 4.286h38.608c2.318 0 4.196-1.918 4.196-4.286 0-4.26-3.381-7.714-7.554-7.714-.76 0-1.497.116-2.19.33"/><path d="M244 86.74a7.636 7.636 0 0 0-3.289-.74c-3.995 0-7.285 3.063-7.711 7"/></g><g stroke="#F6A623"><path d="M256.333 23h-6.666S248 17.922 248 12.847C248 6.077 253 1 253 1s5 5.077 5 11.845C258 17.922 256.333 23 256.333 23zM252.75 15v8"/><path d="M250 23h-7v-3.2l5.31-4.8M256 23h7v-3.2l-5.31-4.8M244 36c.391-5.04 4.339-9 9.149-9 4.222 0 7.778 3.049 8.851 7.2M269 35c-.179-2.826-2.484-5-5.287-5-.992 0-1.92.28-2.713.767M264 40s-.833-3-5-3M251 36.164c-2.634-.805-3.512 1.612-3.512 1.612s-2.634-1.612-4.39 0C241.34 39.388 242.22 41 242.22 41"/><path d="M235.713 39.284a4.119 4.119 0 0 0-2.517-.855c-2.317 0-4.196 1.919-4.196 4.285 0 2.368 1.88 4.286 4.196 4.286h38.608c2.318 0 4.196-1.918 4.196-4.286 0-4.26-3.381-7.714-7.554-7.714-.76 0-1.497.116-2.19.33"/><path d="M244 32.74a7.636 7.636 0 0 0-3.289-.74c-3.995 0-7.285 3.063-7.711 7"/></g></g></g></svg>