<svg width="152" height="65" viewBox="0 0 152 65" xmlns="http://www.w3.org/2000/svg"><title>Group</title><g fill="#000" fill-rule="evenodd"><path d="M119.496 33C126.942 33 133 26.943 133 19.497 133 12.056 126.942 6 119.496 6 112.054 6 106 12.056 106 19.497 106 26.943 112.054 33 119.496 33zm0-25C125.84 8 131 13.158 131 19.497 131 25.84 125.84 31 119.496 31 113.157 31 108 25.84 108 19.497 108 13.158 113.157 8 119.496 8zm19.913 21.03c-1.796 0-3.478-.628-4.866-1.815a.916.916 0 0 0-1.329.136 1.015 1.015 0 0 0 .131 1.387A9.348 9.348 0 0 0 139.41 31c5.289 0 9.591-4.486 9.591-10.001 0-5.514-4.302-9.999-9.591-9.999a9.342 9.342 0 0 0-6.065 2.26c-.401.344-.46.966-.13 1.386a.92.92 0 0 0 1.33.138 7.487 7.487 0 0 1 4.865-1.814c4.246 0 7.702 3.601 7.702 8.029s-3.456 8.03-7.702 8.03zm-6.417 11.123c-3.449-5.874-10.69-5.14-10.894-5.108h-5.899c-.26-.005-6.085-.161-9.508 4.867-1.899 2.781-4.687 13.455-5.667 17.896a.975.975 0 0 0 .72 1.167.951.951 0 0 0 1.141-.738c1.031-4.664 3.75-14.832 5.373-17.209 2.816-4.137 7.836-4.022 7.908-4.031l6.034-.006c.063-.007 6.38-.628 9.181 4.21.022.038.046.074.073.11 1.72 2.218 4.6 12.201 5.66 16.93a.96.96 0 0 0 1.145.734.978.978 0 0 0 .716-1.17c-.832-3.71-3.783-14.726-5.983-17.652zM99.588 31a9.353 9.353 0 0 0 6.067-2.262c.403-.345.462-.966.13-1.387a.916.916 0 0 0-1.327-.136c-1.389 1.187-3.072 1.815-4.87 1.815-4.246 0-7.7-3.603-7.7-8.031 0-4.428 3.454-8.029 7.7-8.029 1.798 0 3.48.627 4.865 1.814a.92.92 0 0 0 1.329-.138 1.013 1.013 0 0 0-.131-1.386A9.337 9.337 0 0 0 99.588 11C94.301 11 90 15.485 90 20.999 90 26.514 94.301 31 99.588 31zm52.39 12.82c-1.014-4.659-2.037-7.767-3.042-9.24-2.498-3.668-6.78-3.554-6.927-3.55l-4.088.006c-.207-.028-5.117-.525-7.747 3.27a.982.982 0 0 0 .228 1.351.94.94 0 0 0 1.326-.233c1.974-2.85 5.946-2.468 6.089-2.455h4.227c.032-.025 3.416-.093 5.331 2.718.592.869 1.55 3.059 2.745 8.553.099.451.492.76.928.76a.927.927 0 0 0 .205-.023.97.97 0 0 0 .725-1.156zm-43.806-8.03a.985.985 0 0 0 1.345.34.962.962 0 0 0 .346-1.328c-2.599-4.33-8.092-3.79-8.218-3.77h-4.293c-.178 0-4.61-.122-7.19 3.55-1.043 1.48-2.099 4.589-3.139 9.239a.97.97 0 0 0 .748 1.156.981.981 0 0 0 1.17-.738c.957-4.278 1.963-7.315 2.834-8.551 1.958-2.786 5.36-2.718 5.543-2.718l4.43-.005c.047-.005 4.478-.419 6.424 2.825zM32.502 0C14.582 0 0 14.579 0 32.498 0 50.42 14.581 65 32.502 65 50.422 65 65 50.42 65 32.498 65 14.578 50.422 0 32.502 0zm.468 62v-4.834a1.143 1.143 0 0 0-2.286 0v4.816C15.077 61.3 2.55 48.695 2 33.06h5.084c.63 0 1.142-.512 1.142-1.142 0-.63-.513-1.142-1.142-1.142H2.008C2.64 15.209 15.146 2.682 30.71 2.018c-.004.046-.027.086-.027.134v5.086a1.143 1.143 0 0 0 2.286 0V2.152c0-.055-.024-.1-.033-.152 15.727.487 28.417 13.09 29.054 28.776h-4.973a1.143 1.143 0 0 0 0 2.284H62C61.447 48.81 48.736 61.494 32.97 62zm12.217-39.909l-10.42 7.346a3.605 3.605 0 0 0-2.272-.821c-.39 0-.76.079-1.113.192l-9.289-13.315a1.146 1.146 0 0 0-1.604-.282 1.162 1.162 0 0 0-.278 1.614l9.306 13.343A3.685 3.685 0 0 0 32.495 36c2.02 0 3.663-1.656 3.663-3.69 0-.324-.053-.631-.13-.93l10.48-7.39c.523-.366.648-1.09.284-1.616a1.146 1.146 0 0 0-1.605-.283zM32.503 34c-.83 0-1.503-.672-1.503-1.498 0-.828.673-1.502 1.503-1.502a1.5 1.5 0 0 1 0 3z"/></g></svg>