<svg width="94" height="39" viewBox="0 0 94 39" xmlns="http://www.w3.org/2000/svg"><title>Group</title><g stroke="#000" stroke-width="2" fill="none" fill-rule="evenodd"><path d="M80 15.5a1.5 1.5 0 1 0-3.001.001A1.5 1.5 0 0 0 80 15.5zM72 15.5a1.5 1.5 0 1 0-3.001.001A1.5 1.5 0 0 0 72 15.5zM69 14l-3-3M83 11l-3 3M87.5 2H83v9h9V6.5" stroke-linecap="round" stroke-linejoin="round"/><path d="M79 29.5a4.5 4.5 0 1 1-9 0 4.5 4.5 0 0 1 9 0zM91 29.5a4.5 4.5 0 1 1-9 0 4.5 4.5 0 0 1 9 0zM68 29.5a4.5 4.5 0 1 1-9 0 4.5 4.5 0 0 1 9 0zM70 29h-3M82 29h-3"/><path d="M58.846 30h-1.423C56.637 30 56 29.328 56 28.5v-3c0-2.485 1.911-4.5 4.27-4.5h28.46c2.358 0 4.27 2.015 4.27 4.5v3c0 .828-.638 1.5-1.423 1.5h-1.423"/><path d="M65 29.5a1.5 1.5 0 1 1-3.001-.001A1.5 1.5 0 0 1 65 29.5zM76 29.5a1.5 1.5 0 1 1-3.001-.001A1.5 1.5 0 0 1 76 29.5zM87 29.5a1.5 1.5 0 1 1-3.001-.001A1.5 1.5 0 0 1 87 29.5z"/><path d="M61 6l-4-4M70 21v-4M79 21v-4M65.903 1c2.762 2.762 2.813 7.19.05 9.953-2.762 2.763-7.19 2.712-9.953-.05L65.903 1z" stroke-linecap="round" stroke-linejoin="round"/><g stroke-linecap="round" stroke-linejoin="round"><path d="M38 19.5C38 9.283 29.717 1 19.5 1S1 9.283 1 19.5 9.283 38 19.5 38 38 29.717 38 19.5z"/><path d="M6.455 6.53L4 15.34l4.2 4.306 7.7-.717-2.1 3.588v2.153l2.8 2.153L18 34l3.5-4.306 1.4-5.024 2.1-3.588-2.8-2.153-4.2-.718-1.4-4.306 2.8-2.871 1.4 1.435 1.4-7.177L20.106 1M31.072 5l-1.164 3.492L27 12.856l1.454 2.91 5.816 1.455 1.454 4.364L38 25"/></g></g></svg>