<svg width="330" height="47" viewBox="0 0 330 47" xmlns="http://www.w3.org/2000/svg"><title>Filter</title><g fill="none" fill-rule="evenodd"><path d="M316 4a1 1 0 1 0-1-1.003c0 .553.45 1.003 1 1.003zm-.005 40c1.106 0 2.005-.9 2.005-2.005a2.001 2.001 0 0 0-4 0c0 1.106.896 2.005 1.995 2.005zm13.248-44h-26.486a.754.754 0 0 0-.757.75v45.5c0 .414.34.75.757.75h26.486a.754.754 0 0 0 .757-.75V.75c0-.414-.34-.75-.757-.75zM304 39h25v6h-25v-6zm0-32h25v31h-25V7zm0-5h25v4h-25V2z" fill="#FFF"/><path d="M278 4a1 1 0 1 0-1-1.003c0 .553.45 1.003 1 1.003zm-.005 40c1.106 0 2.005-.9 2.005-2.005a2.001 2.001 0 0 0-4 0c0 1.106.896 2.005 1.995 2.005zm13.248-44h-26.486a.754.754 0 0 0-.757.75v45.5c0 .414.34.75.757.75h26.486a.754.754 0 0 0 .757-.75V.75c0-.414-.34-.75-.757-.75zM266 39h25v6h-25v-6zm0-32h25v31h-25V7zm0-5h25v4h-25V2z" fill="#000"/><path d="M193.75 33c.414 0 .75-.337.75-.752V9.505h39v22.743c0 .415.336.752.75.752s.75-.337.75-.752V8.752a.751.751 0 0 0-.75-.752h-40.5a.751.751 0 0 0-.75.752v23.496c0 .415.336.752.75.752zm47.963 1.4c-.233-.253-.58-.4-.953-.4h-52.52c-.373 0-.72.147-.953.4a1.09 1.09 0 0 0-.269.936l.468 2.56c.112.619.732 1.104 1.411 1.104h51.207c.678 0 1.299-.485 1.411-1.104l.467-2.56a1.089 1.089 0 0 0-.269-.936zm-2.108 3.6h-50.21L189 36h51l-.395 2z" fill="#FFF"/><path d="M128.75 33c.414 0 .75-.337.75-.752V9.505h39v22.743c0 .415.336.752.75.752s.75-.337.75-.752V8.752a.751.751 0 0 0-.75-.752h-40.5a.751.751 0 0 0-.75.752v23.496c0 .415.336.752.75.752zm47.963 1.4c-.233-.253-.58-.4-.953-.4h-52.52c-.373 0-.72.147-.953.4a1.09 1.09 0 0 0-.269.936l.468 2.56c.112.619.732 1.104 1.411 1.104h51.207c.678 0 1.299-.485 1.411-1.104l.467-2.56a1.089 1.089 0 0 0-.269-.936zm-2.108 3.6h-50.21L124 36h51l-.395 2z" fill="#000"/><g><path d="M89.99 43.02c-.383-.202-1.154-.607-1.522-.932-.138-.525-.32-2.591-.379-4.365-.014-.403-.341-.722-.805-.706-.43.012-.769.35-.754.753.07 2.117.249 4.739.696 5.216.463.48 1.276.928 2.031 1.324l.177.088a.805.805 0 0 1-.036.14H75.64a.843.843 0 0 1-.035-.07.991.991 0 0 1-.029-.09l.163-.084c.725-.38 1.537-.827 2.01-1.316.352-.375.584-2.132.689-5.223.013-.403-.325-.74-.755-.753a.746.746 0 0 0-.804.708c-.062 1.78-.243 3.849-.379 4.376-.377.331-1.143.734-1.54.942l-.194.1a2.593 2.593 0 0 0-.338.197c-.309.239-.613.709-.289 1.642.37.855.925 1.033 1.324 1.033h14.07a1.41 1.41 0 0 0 1.327-.943c.227-.545.221-1.32-.343-1.747-.076-.055-.206-.13-.527-.29zM102.67 3H62.346C61.603 3 61 3.604 61 4.344v27.328c0 .732.603 1.328 1.345 1.328h40.326A1.33 1.33 0 0 0 104 31.672V4.344c0-.74-.596-1.344-1.33-1.344zM63 5h40v27H63V5z" fill="#FFF"/><path d="M28.99 43.02c-.383-.202-1.154-.607-1.522-.932-.138-.525-.32-2.591-.379-4.365-.014-.403-.341-.722-.805-.706-.43.012-.769.35-.754.753.07 2.117.249 4.739.696 5.216.463.48 1.276.928 2.031 1.324l.177.088a.805.805 0 0 1-.036.14H14.64a.843.843 0 0 1-.035-.07.991.991 0 0 1-.029-.09l.163-.084c.725-.38 1.537-.827 2.01-1.316.352-.375.584-2.132.689-5.223.013-.403-.325-.74-.755-.753a.746.746 0 0 0-.804.708c-.062 1.78-.243 3.849-.379 4.376-.377.331-1.143.734-1.54.942l-.194.1a2.593 2.593 0 0 0-.338.197c-.309.239-.613.709-.289 1.642.37.855.925 1.033 1.324 1.033h14.07a1.41 1.41 0 0 0 1.327-.943c.227-.545.221-1.32-.343-1.747-.076-.055-.206-.13-.527-.29zM41.67 3H1.346C.603 3 0 3.604 0 4.344v27.328C0 32.404.603 33 1.345 33H41.67A1.33 1.33 0 0 0 43 31.672V4.344C43 3.604 42.404 3 41.67 3zM2 5h40v27H2V5z" fill="#000"/></g></g></svg>